<svg height="395pt" viewBox="0 -6 395.94667 395" width="395pt" xmlns="http://www.w3.org/2000/svg"><path d="m334.507812 191.621094c0 67.863281-55.015624 122.878906-122.882812 122.878906-67.863281 0-122.878906-55.015625-122.878906-122.878906 0-67.867188 55.015625-122.882813 122.878906-122.882813 67.867188 0 122.882812 55.015625 122.882812 122.882813zm0 0" fill="#0e65e5"/><path d="m211.625 321.328125c-71.519531 0-129.703125-58.1875-129.703125-129.707031 0-71.519532 58.183594-129.707032 129.703125-129.707032s129.707031 58.1875 129.707031 129.707032c0 71.519531-58.1875 129.707031-129.707031 129.707031zm0-245.761719c-63.992188 0-116.050781 52.058594-116.050781 116.054688 0 63.992187 52.058593 116.050781 116.050781 116.050781 63.996094 0 116.054688-52.058594 116.054688-116.050781 0-63.996094-52.058594-116.054688-116.054688-116.054688zm0 0" fill="#0e65e5"/><path d="m320.851562 191.621094c0 67.863281-55.011718 122.878906-122.878906 122.878906-67.863281 0-122.878906-55.015625-122.878906-122.878906 0-67.867188 55.015625-122.882813 122.878906-122.882813 67.867188 0 122.878906 55.015625 122.878906 122.882813zm0 0" fill="#94c1ff"/><path d="m197.972656 321.328125c-71.519531 0-129.707031-58.1875-129.707031-129.707031 0-71.519532 58.1875-129.707032 129.707031-129.707032 71.519532 0 129.707032 58.1875 129.707032 129.707032 0 71.519531-58.1875 129.707031-129.707032 129.707031zm0-245.761719c-63.992187 0-116.050781 52.058594-116.050781 116.054688 0 63.992187 52.058594 116.050781 116.050781 116.050781 63.992188 0 116.054688-52.058594 116.054688-116.050781 0-63.996094-52.0625-116.054688-116.054688-116.054688zm0 0" fill="#0e65e5"/><path d="m229.007812 100.832031c-.679687 0-1.382812-.097656-2.066406-.320312-15.433594-4.90625-32.265625-5.777344-48.175781-2.539063-3.617187.742188-7.292969-1.625-8.046875-5.320312-.75-3.699219 1.628906-7.296875 5.320312-8.050782 18.171876-3.714843 37.386719-2.703124 55.035157 2.898438 3.589843 1.140625 5.578125 4.980469 4.4375 8.574219-.917969 2.90625-3.605469 4.757812-6.503907 4.757812zm0 0" fill="#fff"/><path d="m320.851562 328.152344c0 26.394531-21.394531 47.789062-47.785156 47.789062s-47.785156-21.394531-47.785156-47.789062c0-26.390625 21.394531-47.785156 47.785156-47.785156s47.785156 21.394531 47.785156 47.785156zm0 0" fill="#d7e9ff"/><path d="m273.066406 382.765625c-30.113281 0-54.613281-24.5-54.613281-54.613281 0-30.113282 24.5-54.613282 54.613281-54.613282 30.113282 0 54.613282 24.5 54.613282 54.613282 0 30.113281-24.5 54.613281-54.613282 54.613281zm0-95.574219c-22.585937 0-40.960937 18.375-40.960937 40.960938 0 22.585937 18.375 40.960937 40.960937 40.960937 22.585938 0 40.960938-18.375 40.960938-40.960937 0-22.585938-18.375-40.960938-40.960938-40.960938zm0 0" fill="#0e65e5"/><path d="m354.988281 328.152344c0 26.394531-21.394531 47.789062-47.789062 47.789062-26.390625 0-47.785157-21.394531-47.785157-47.789062 0-26.390625 21.394532-47.785156 47.785157-47.785156 26.394531 0 47.789062 21.394531 47.789062 47.785156zm0 0" fill="#2a8ee6"/><path d="m307.199219 382.765625c-30.113281 0-54.613281-24.5-54.613281-54.613281 0-30.113282 24.5-54.613282 54.613281-54.613282s54.613281 24.5 54.613281 54.613282c0 30.113281-24.5 54.613281-54.613281 54.613281zm0-95.574219c-22.585938 0-40.960938 18.375-40.960938 40.960938 0 22.585937 18.375 40.960937 40.960938 40.960937 22.585937 0 40.960937-18.375 40.960937-40.960937 0-22.585938-18.375-40.960938-40.960937-40.960938zm0 0" fill="#0e65e5"/><path d="m389.121094 328.152344c0 26.394531-21.394532 47.789062-47.789063 47.789062-26.390625 0-47.785156-21.394531-47.785156-47.789062 0-26.390625 21.394531-47.785156 47.785156-47.785156 26.394531 0 47.789063 21.394531 47.789063 47.785156zm0 0" fill="#d7e9ff"/><path d="m341.332031 382.765625c-30.113281 0-54.613281-24.5-54.613281-54.613281 0-30.113282 24.5-54.613282 54.613281-54.613282 30.117188 0 54.613281 24.5 54.613281 54.613282 0 30.113281-24.496093 54.613281-54.613281 54.613281zm0-95.574219c-22.585937 0-40.957031 18.375-40.957031 40.960938 0 22.585937 18.371094 40.960937 40.957031 40.960937 22.585938 0 40.960938-18.375 40.960938-40.960937 0-22.585938-18.375-40.960938-40.960938-40.960938zm0 0" fill="#0e65e5"/><path d="m340.066406 362.5v-8.265625c-4.746094-.082031-9.660156-1.5625-12.519531-3.609375l1.960937-5.476562c2.945313 1.957031 7.207032 3.515624 11.785157 3.515624 5.8125 0 9.746093-3.359374 9.746093-8.023437 0-4.5-3.191406-7.289063-9.253906-9.742187-8.347656-3.277344-13.507812-7.046876-13.507812-14.167969 0-6.789063 4.828125-11.953125 12.363281-13.179688v-8.273437h5.078125v7.945312c4.90625.160156 8.269531 1.472656 10.640625 2.863282l-2.046875 5.40625c-1.714844-.980469-5.074219-2.789063-10.3125-2.789063-6.308594 0-8.679688 3.769531-8.679688 7.046875 0 4.253906 3.023438 6.386719 10.152344 9.335938 8.433594 3.433593 12.6875 7.691406 12.6875 14.976562 0 6.46875-4.5 12.527344-12.933594 13.921875v8.511719h-5.160156zm0 0" fill="#0e65e5"/><path d="m79.96875 157.363281c10.582031 2.242188 20.5 5.679688 23.121094 10.925781 6.222656 12.441407 18.667968 12.441407 31.109375 0 12.445312-12.445312 31.109375-24.886718 12.445312-43.554687-9.316406-9.3125-12.378906-24.683594-13.109375-37.742187-25.632812 15.820312-44.996094 40.796874-53.566406 70.371093zm0 0" fill="#fff" fill-rule="evenodd"/><path d="m116.273438 184.445312c-1.085938 0-2.167969-.085937-3.226563-.257812-6.769531-1.09375-12.46875-5.660156-16.058594-12.847656-.023437-.03125-2.089843-3.832032-18.433593-7.292969-1.855469-.390625-3.46875-1.539063-4.441407-3.164063-.980469-1.632812-1.234375-3.59375-.707031-5.414062 8.972656-30.933594 29.050781-57.3125 56.539062-74.277344 2.054688-1.273437 4.605469-1.355468 6.746094-.25 2.132813 1.113282 3.519532 3.269532 3.65625 5.675782.605469 10.71875 3.019532 25.191406 11.125 33.292968 6.675782 6.671875 10 13.613282 9.894532 20.625-.179688 11.632813-9.46875 20.378906-17.660157 28.09375-1.601562 1.5-3.1875 2.992188-4.679687 4.488282-7.386719 7.390624-15.347656 11.328124-22.753906 11.328124zm-27.554688-31.964843c11.152344 3.132812 17.726562 7.257812 20.480469 12.753906 1.621093 3.246094 3.652343 5.089844 6.035156 5.480469 3.730469.566406 8.925781-2.035156 14.136719-7.253906 1.589844-1.589844 3.273437-3.179688 4.972656-4.773438 6.527344-6.148438 13.28125-12.5 13.367188-18.367188.046874-3.179687-1.933594-6.800781-5.890626-10.761718-7.015624-7.003906-11.65625-17.242188-13.847656-30.5-18.019531 13.628906-31.648437 32.140625-39.253906 53.421875zm0 0" fill="#0e65e5"/><path d="m170.667969 55.085938c0 26.394531-21.394531 47.789062-47.789063 47.789062-26.390625 0-47.785156-21.394531-47.785156-47.789062 0-26.390626 21.394531-47.785157 47.785156-47.785157 26.394532 0 47.789063 21.394531 47.789063 47.785157zm0 0" fill="#d7e9ff"/><path d="m122.878906 109.699219c-30.113281 0-54.613281-24.5-54.613281-54.613281 0-30.113282 24.5-54.613282 54.613281-54.613282 30.113282 0 54.613282 24.5 54.613282 54.613282 0 30.113281-24.5 54.613281-54.613282 54.613281zm0-95.574219c-22.585937 0-40.957031 18.375-40.957031 40.960938 0 22.585937 18.371094 40.960937 40.957031 40.960937 22.585938 0 40.960938-18.375 40.960938-40.960937 0-22.585938-18.375-40.960938-40.960938-40.960938zm0 0" fill="#0e65e5"/><path d="m136.535156 55.085938c0 26.394531-21.398437 47.789062-47.789062 47.789062s-47.785156-21.394531-47.785156-47.789062c0-26.390626 21.394531-47.785157 47.785156-47.785157s47.789062 21.394531 47.789062 47.785157zm0 0" fill="#2a8ee6"/><path d="m88.746094 109.699219c-30.113282 0-54.613282-24.5-54.613282-54.613281 0-30.113282 24.5-54.613282 54.613282-54.613282 30.113281 0 54.613281 24.5 54.613281 54.613282 0 30.113281-24.5 54.613281-54.613281 54.613281zm0-95.574219c-22.585938 0-40.960938 18.375-40.960938 40.960938 0 22.585937 18.375 40.960937 40.960938 40.960937 22.585937 0 40.960937-18.375 40.960937-40.960937 0-22.585938-18.375-40.960938-40.960937-40.960938zm0 0" fill="#0e65e5"/><path d="m102.398438 55.085938c0 26.394531-21.394532 47.789062-47.785157 47.789062s-47.785156-21.394531-47.785156-47.789062c0-26.390626 21.394531-47.785157 47.785156-47.785157s47.785157 21.394531 47.785157 47.785157zm0 0" fill="#d7e9ff"/><path d="m54.613281 109.699219c-30.113281 0-54.613281-24.5-54.613281-54.613281 0-30.113282 24.5-54.613282 54.613281-54.613282s54.613281 24.5 54.613281 54.613282c0 30.113281-24.5 54.613281-54.613281 54.613281zm0-95.574219c-22.585937 0-40.960937 18.375-40.960937 40.960938 0 22.585937 18.375 40.960937 40.960937 40.960937 22.585938 0 40.960938-18.375 40.960938-40.960937 0-22.585938-18.375-40.960938-40.960938-40.960938zm0 0" fill="#0e65e5"/><path d="m38.628906 27.875c0-.480469.320313-.808594.804688-.808594h19.480468c11.074219 0 16.566407 5.660156 16.566407 14.46875 0 6.386719-3.066407 10.265625-7.355469 11.964844v.160156c3.722656 1.054688 8.328125 5.335938 8.328125 12.695313 0 10.269531-6.464844 15.679687-17.945313 15.679687h-19.074218c-.488282 0-.808594-.320312-.808594-.804687v-53.355469zm20.125 22.957031c6.058594 0 9.621094-3.476562 9.621094-8.570312 0-5.253907-3.5625-8.648438-9.621094-8.648438h-12.453125c-.320312 0-.480469.164063-.480469.488281v16.246094c0 .328125.160157.488282.480469.488282h12.453125zm-12.453125 24.65625h12.851563c6.546875 0 10.109375-3.5625 10.109375-9.054687 0-5.414063-3.5625-9.054688-10.109375-9.054688h-12.851563c-.320312 0-.480469.160156-.480469.484375v17.136719c0 .324219.160157.488281.480469.488281zm0 0" fill="#0e65e5"/><path d="m165.308594 286.503906s12.445312-37.332031 0-43.554687c-12.441406-6.222657-24.886719 0-31.109375-18.664063-6.222657-18.667968 0-24.886718 18.667969-31.109375 18.664062-6.222656 43.550781 0 49.773437 24.886719s-6.222656 37.328125-12.441406 62.21875c-4.53125 18.109375-24.890625 6.222656-24.890625 6.222656zm0 0" fill="#fff" fill-rule="evenodd"/><path d="m178.386719 297.148438c-8.082031 0-15.480469-4.140626-16.519531-4.753907-2.789063-1.628906-4.054688-4.988281-3.042969-8.046875 5.585937-16.792968 6.570312-33.726562 3.429687-35.292968-3.140625-1.574219-6.472656-2.164063-10.007812-2.78125-8.480469-1.496094-19.03125-3.355469-24.519532-19.828126-8.011718-24.046874 2.855469-33.03125 22.980469-39.746093 12.914063-4.3125 27.285157-3.214844 38.453125 2.925781 10.167969 5.585938 17.121094 14.847656 20.097656 26.78125 4.761719 19.03125-.285156 31.867188-5.632812 45.460938-2.417969 6.160156-4.917969 12.527343-6.8125 20.074218-2.121094 8.492188-7.054688 12.164063-10.8125 13.753906-2.488281 1.046876-5.085938 1.453126-7.613281 1.453126zm-13.082031-10.648438h.066406zm8.316406-3.832031c2.597656.800781 5.339844 1.179687 7.089844.441406.480468-.207031 1.949218-.828125 2.863281-4.480469 2.097656-8.410156 4.882812-15.5 7.34375-21.753906 5.109375-12.988281 8.792969-22.367188 5.101562-37.160156-2.066406-8.261719-6.585937-14.359375-13.433593-18.121094-7.894532-4.332031-18.207032-5.066406-27.558594-1.945312-16.714844 5.582031-18.859375 8.9375-14.355469 22.480468 2.921875 8.761719 6.375 9.367188 13.941406 10.699219 4.140625.726563 8.828125 1.554687 13.746094 4.015625 13.980469 6.988281 9.105469 32.210938 5.261719 45.824219zm0 0" fill="#0e65e5"/><path d="m261.558594 86.453125c-18.570313 18.160156-38.753906 40.855469-27.808594 44.503906 18.664062 6.222657 31.109375 12.445313 31.109375 12.445313s-6.222656 18.664062-24.886719 18.664062c-18.667968 0-43.554687 0-43.554687 6.222656 0 6.222657 37.332031 31.109376 37.332031 37.332032 0 6.21875 8.042969 32.929687 12.441406 37.328125 6.222656 6.222656 24.886719 12.445312 31.109375-12.441407 6.222657-24.886718 0-43.554687 12.445313-49.777343 6.953125-3.476563 15.851562-20.40625 22.347656-34.664063-9.960938-24.933594-27.828125-45.855468-50.535156-59.613281zm0 0" fill="#fff" fill-rule="evenodd"/><path d="m259.78125 255.339844c-7.414062 0-14.386719-3.53125-18.414062-7.566406-5.765626-5.753907-13.566407-31.921876-14.378907-40.820313-2.0625-2.90625-10.546875-9.980469-16.269531-14.746094-15.652344-13.050781-21.125-18.128906-21.125-23.921875 0-12.441406 18.207031-13.046875 50.378906-13.046875 7.882813 0 12.792969-4.667969 15.554688-8.621093-5.3125-2.328126-13.6875-5.765626-23.941406-9.1875-3.878907-1.292969-6.597657-4.1875-7.457032-7.933594-1.488281-6.457032 1.234375-17.199219 32.660156-47.925782 2.234376-2.171874 5.640626-2.558593 8.3125-.957031 23.992188 14.539063 42.933594 36.882813 53.332032 62.917969.695312 1.734375.648437 3.664062-.125 5.359375-13.3125 29.234375-20.933594 35.65625-25.507813 37.949219-3.824219 1.910156-4.484375 6.640625-5.273437 18.664062-.476563 7.382813-1.078125 16.554688-3.605469 26.65625-3.847656 15.398438-12.039063 20.679688-18.238281 22.390625-1.96875.546875-3.949219.789063-5.902344.789063zm-53.523438-85.066406c3.5625 3.40625 9.09375 8.019531 13.199219 11.445312 15.640625 13.035156 21.113281 18.113281 21.113281 23.902344 0 4.890625 7.410157 28.859375 10.527344 32.578125 1.921875 1.921875 6.820313 4.367187 10.941406 3.195312 4.886719-1.355469 7.390626-7.570312 8.636719-12.542969 2.222657-8.90625 2.753907-17.050781 3.230469-24.230468.8125-12.546875 1.585938-24.402344 12.785156-29.996094.625-.3125 6.300782-3.71875 17.953125-28.703125-8.8125-20.527344-23.605469-38.328125-42.160156-50.78125-18.332031 18.378906-23.226563 26.828125-24.53125 30.035156 17.765625 6.058594 29.453125 11.863281 29.960937 12.121094 3.039063 1.519531 4.5 5.039063 3.417969 8.265625-.3125.953125-8.046875 23.332031-31.359375 23.332031-8.832031 0-25.332031 0-33.714844 1.378907zm0 0" fill="#0e65e5"/><g fill="#fff"><path d="m314.027344 246.234375c-3.773438 0-6.828125-3.054687-6.828125-6.828125v-27.304688c0-3.773437 3.054687-6.828124 6.828125-6.828124 3.773437 0 6.824218 3.054687 6.824218 6.828124v27.304688c0 3.773438-3.050781 6.828125-6.824218 6.828125zm0 0"/><path d="m327.679688 232.578125h-27.304688c-3.773438 0-6.828125-3.050781-6.828125-6.824219 0-3.773437 3.054687-6.828125 6.828125-6.828125h27.304688c3.773437 0 6.828124 3.054688 6.828124 6.828125 0 3.773438-3.054687 6.824219-6.828124 6.824219zm0 0"/></g></svg>